# xmcd
#
# Track frame offsets:
#	150
#	12391
#	25649
#	43083
#	55356
#	65863
#	78334
#	89174
#	108113
#	120275
#	136000
#	150251
#	164601
#	174185
#	185409
#
# Disc length: 2608 seconds
#
# Revision: 0
# Processed by: cddbd v1.5.2PL0 Copyright (c) Steve Scherf et al.
# Submitted via: audiograbber 1.83.01
#
DISCID=b80a2e0f
DTITLE=Rolando Boldrin - Historias faladas e cantadas - vol3
DYEAR=2008
DGENRE=MPB
TTITLE0=Cabelos brancos
TTITLE1=O glosador
TTITLE2=Bola na rede
TTITLE3=Terno de missa
TTITLE4=Na aldeia
TTITLE5=Nao manche o meu panama
TTITLE6=Voce ja foi a sao paulo
TTITLE7=Proverbios
TTITLE8=Eu quero ver quem pode mais
TTITLE9=Quanto vale uma crianca
TTITLE10=O sapo do saco
TTITLE11=Porta 33
TTITLE12=Best selller
TTITLE13=Que morena
TTITLE14=Pe de vento
EXTD=CD3 - SAMBAS HISTORICOS
EXTT0=
EXTT1=
EXTT2=
EXTT3=
EXTT4=
EXTT5=
EXTT6=
EXTT7=
EXTT8=
EXTT9=
EXTT10=
EXTT11=
EXTT12=
EXTT13=
EXTT14=
PLAYORDER=
